<?xml version="1.0" encoding="utf-8"?>
<!-- Generator: Adobe Illustrator 19.2.1, SVG Export Plug-In . SVG Version: 6.00 Build 0)  -->
<svg version="1.1" id="Layer_1" xmlns="http://www.w3.org/2000/svg" xmlns:xlink="http://www.w3.org/1999/xlink" x="0px" y="0px"
	 viewBox="0 0 95 95" style="enable-background:new 0 0 95 95;" xml:space="preserve">
<style type="text/css">
	.st0{fill:#FFFFFF;}
</style>
<title>Group 4</title>
<desc>Created with Sketch.</desc>
<g id="Page-1">
	<g id="Desktop-HD-Copy" transform="translate(-955.000000, -4084.000000)">
		<g id="Group-4" transform="translate(955.000000, 4084.000000)">
			<g id="Clip-2">
			</g>
			<path id="Fill-1" class="st0" d="M64.3,70.6L64.3,70.6L64.3,70.6c-0.2,0.2-0.3,0.4-0.7,0.5C63,69.6,60,60,63.9,23l0,0
				c0.2-0.5,0.3-0.6,0.4-0.7C68.4,62.3,64.6,70.2,64.3,70.6 M30.6,71.3c-0.5-0.9-3.9-9.7,0.2-48.3c0,0,0,0,0-0.1
				c0.2-0.5,0.7-0.8,0.7-0.9c1.4-0.9,1.6-0.9,4.9-0.1c-0.1,0.2-0.2,0.4-0.3,0.7c0,0.1-1.2,12.2-1.5,17.5c0,0.2,0.2,0.5,0.5,0.5l0,0
				h0.1c3.2,0.9,6.3,1.2,9.4,1.2c3.6,0,7.3-0.5,11.1-1.2c0.2-0.1,0.5-0.3,0.4-0.5c0,0,0.8-11.1,1.5-17.2c0,0,0,0,0-0.1
				c0.2-0.5,0.6-0.8,0.7-0.9c1.5-0.9,1.6-0.9,4.9-0.1c-0.1,0.2-0.3,0.9-0.3,0.9c-3.7,35.6-1.2,46-0.2,48.5
				C43.6,74.2,39.8,74.2,30.6,71.3 M37.4,22.3L37.4,22.3c0.5,5.5,1,10.7,1.3,15.4c0,0,0,0.6,0.3,0.7c3.1,0.9,6.2,1.2,9.4,1.2
				c2.1,0,4.3-0.2,6.6-0.5c0,0.2,0,0.5-0.1,0.7c-7,1.3-12.8,1.8-19.5,0c0.3-5.1,0.9-10.8,1.5-16.8c0,0,0,0,0-0.1
				C37.2,22.4,37.4,22.3,37.4,22.3 M65.2,22.2c0-0.1-0.5-0.9-0.9-0.9c-4.5-1.2-4.6-1.2-6.7,0l-0.1,0.1c-0.4,0.2-0.8,0.7-0.9,1.3
				c0,0.1-1,10.7-1.3,15.4c-6,0.8-10.7,0.6-15.5-0.6c-0.3-4.7-1.3-15.5-1.4-15.5c-0.2-0.4-0.5-0.6-0.9-0.7c-4.5-1.2-4.6-1.2-6.7,0
				l-0.1,0.1c-0.4,0.2-1,1.5-1,1.5C25.2,65.5,29.9,72,29.9,72c0.5,0.3,6.6,2.3,13,2.3c6.6,0,20.6-2.2,20.6-2.2s1.2-0.5,1.6-0.9l0,0
				C65.1,71.2,69.7,64.8,65.2,22.2"/>
		</g>
	</g>
</g>
</svg>
