<?xml version="1.0" encoding="utf-8"?>
<!-- Generator: Adobe Illustrator 19.2.1, SVG Export Plug-In . SVG Version: 6.00 Build 0)  -->
<svg version="1.1" id="Layer_1" xmlns="http://www.w3.org/2000/svg" xmlns:xlink="http://www.w3.org/1999/xlink" x="0px" y="0px"
	 viewBox="0 0 95 95" style="enable-background:new 0 0 95 95;" xml:space="preserve">
<style type="text/css">
	.st0{fill:#FFFFFF;}
</style>
<title>Group 10</title>
<desc>Created with Sketch.</desc>
<g id="Page-1">
	<g id="Desktop-HD-Copy" transform="translate(-966.000000, -3888.000000)">
		<g id="Group-10" transform="translate(966.000000, 3888.000000)">
			<g id="Group-3">
				<g id="Clip-2">
				</g>
				<path class="st0" d="M57.5,41.8c0-0.4,0.2-0.9,0.3-1.4c0.4-1.4,1.2-3.6,1.2-8.5c0-6.6-5.9-12-7.1-13V17h1.3v-1h-0.5v-5.9
					c0-0.9-0.8-1.7-1.6-1.7h-7.9c-0.9,0-1.7,0.8-1.7,1.7v6H41v1h1.3V19c-1.2,1-7.1,6.4-7.1,13c0,4.9,0.8,7.1,1.2,8.5
					c0.2,0.6,0.3,1,0.3,1.4c0,0.5-0.2,1.1-0.5,1.9c-0.4,1.3-1,3-1,5.4v26.3c0,2.5,1,8.9,3.5,10.1c2.3,1,4.8,0.3,5.8-0.7
					c0.6-0.6,4.8-0.5,5.4,0c0.6,0.6,2,1.2,3.4,1.2c0.8,0,1.5-0.2,2.3-0.5C58,84.4,59,78,59,75.4V49c0-2.4-0.6-4.1-1-5.4
					C57.6,42.9,57.5,42.3,57.5,41.8z M42.4,10.1c0-0.3,0.3-0.7,0.7-0.7H51c0.3,0,0.7,0.3,0.7,0.7v4h-9.3V10.1z M42.4,14.6h9.2V16
					h-9.2V14.6z M58,75.3L58,75.3L58,75.3L58,75.3c0,3.1-1.3,8.4-2.9,9.2c-1.9,0.8-4,0.2-4.6-0.5c-0.9-0.9-5.7-1.1-6.8,0
					c-0.7,0.7-2.7,1.4-4.6,0.5c-1.6-0.8-2.9-6.1-2.9-9.2V49c0-2.2,0.5-3.7,0.9-5c0.3-0.9,0.5-1.5,0.5-2.2c0-0.6-0.2-1.1-0.3-1.7
					c-0.4-1.4-1.1-3.4-1.1-8.2c0-6.7,6.8-12.2,6.9-12.3c0.1-0.1,0.2-0.3,0.2-0.4V17H51v2.1c0,0.2,0.1,0.3,0.2,0.4
					c0.1,0.1,6.9,5.6,6.9,12.3c0,4.8-0.7,6.8-1.1,8.2c-0.3,0.7-0.4,1.2-0.4,1.7c0,0.7,0.3,1.4,0.5,2.2c0.4,1.3,0.9,2.8,0.9,5
					L58,75.3L58,75.3z"/>
			</g>
			<polygon id="Fill-4" class="st0" points="40.2,40.7 54.7,40.7 54.7,39.6 40.2,39.6 			"/>
		</g>
	</g>
</g>
</svg>
