<?xml version="1.0" encoding="utf-8"?>
<!-- Generator: Adobe Illustrator 19.2.1, SVG Export Plug-In . SVG Version: 6.00 Build 0)  -->
<svg version="1.1" id="Layer_1" xmlns="http://www.w3.org/2000/svg" xmlns:xlink="http://www.w3.org/1999/xlink" x="0px" y="0px"
	 viewBox="0 0 95 95" style="enable-background:new 0 0 95 95;" xml:space="preserve">
<style type="text/css">
	.st0{fill:#FFFFFF;}
</style>
<title>Group 5</title>
<desc>Created with Sketch.</desc>
<g>
	<path class="st0" d="M65.4,34.1c0-5.2-3-9.5-6.7-9.5c-3.7,0-6.7,4.3-6.7,9.5v2.2c0,2.5,0.1,2.6,2.6,4.8c2.4,2.1,2.4,2.1,2.4,4.2
		v4.5v24.7c0,0.3,0.3,0.4,0.5,0.4H60c0.3,0,0.5-0.2,0.5-0.4V49.8v-4.5c0-2,0-2,2.4-4.2c2.6-2.3,2.6-2.4,2.6-4.8L65.4,34.1
		C65.5,34.1,65.4,34.1,65.4,34.1z M59.6,74h-1.5V50.1h1.5V74z M64.3,36.4c0,2,0,2-2.4,4.2c-2.4,2.1-2.5,2.2-2.5,4.8v4.1h-1.5v-4.1
		c0-2.5-0.1-2.6-2.6-4.8c-2.4-2.1-2.4-2.1-2.4-4.2v-2.1c0-4.7,2.6-8.5,5.7-8.5c3.2,0,5.7,3.8,5.7,8.5C64.3,34.3,64.3,36.4,64.3,36.4
		z"/>
	<path class="st0" d="M44.9,20c-1.6,0-3,1.2-3,2.7V43c0,0.1,0,0.1,0,0.2c0,0.1,0.1,0.1,0.1,0.2c2.4,2.1,2.4,2.1,2.4,4.2v2.2v24.7
		c0,0.3,0.3,0.4,0.5,0.4h2.5c0.3,0,0.5-0.2,0.5-0.4V49.7v-27C47.9,21.2,46.6,20,44.9,20z M42.9,42.8v-20c0-1,0.9-1.8,2-1.8
		s2,0.8,2,1.8v26.5h-1.5v-1.8C45.5,45.1,45.4,44.9,42.9,42.8z M47.1,74h-1.5V50.1h1.5V74z"/>
	<path class="st0" d="M37.5,24.6c-0.3,0-0.5,0.2-0.5,0.4v15.5c-2.4,2.1-2.5,2.3-2.5,4.7v4H33v-4c0-2.4-0.1-2.6-2.5-4.7V25
		c0-0.3-0.3-0.4-0.5-0.4c-0.3,0-0.5,0.2-0.5,0.4v15.8c0,0.1,0,0.1,0,0.2s0.1,0.1,0.1,0.2c2.4,2.1,2.4,2.1,2.4,4.2v4.5v24.7
		c0,0.3,0.3,0.4,0.5,0.4H35c0.3,0,0.5-0.2,0.5-0.4V49.8v-4.5c0-2,0-2,2.4-4.2c0.1,0,0.1-0.1,0.1-0.2c0-0.1,0-0.1,0-0.2V25H38
		C37.9,24.7,37.7,24.6,37.5,24.6z M34.5,74H33V50.1h1.5V74z"/>
	<path id="Fill-6" class="st0" d="M32.5,34.4c0.3,0,0.5-0.2,0.5-0.4v-9c0-0.3-0.3-0.4-0.5-0.4c-0.3,0-0.5,0.2-0.5,0.4v9
		C32,34.3,32.1,34.4,32.5,34.4"/>
	<path id="Fill-7" class="st0" d="M35,34.4c0.3,0,0.5-0.2,0.5-0.4v-9c0-0.3-0.3-0.4-0.5-0.4s-0.5,0.2-0.5,0.4v9
		C34.4,34.3,34.7,34.4,35,34.4"/>
</g>
</svg>
