<?xml version="1.0" encoding="utf-8"?>
<!-- Generator: Adobe Illustrator 21.0.0, SVG Export Plug-In . SVG Version: 6.00 Build 0)  -->
<svg version="1.1" id="Layer_1" xmlns="http://www.w3.org/2000/svg" xmlns:xlink="http://www.w3.org/1999/xlink" x="0px" y="0px"
	 viewBox="0 0 606 622" style="enable-background:new 0 0 606 622;" xml:space="preserve">
<style type="text/css">
	.st0{fill:#FFFFFF;stroke:#FFFFFF;stroke-width:0.4;}
	.st1{fill:#FFFFFF;stroke:#FFFFFF;stroke-width:8.000000e-02;}
	.st2{fill:#FFFFFF;stroke:#FFFFFF;stroke-width:0.1;}
</style>
<title>Untitled-2</title>
<path id="ad-4" class="st0" d="M279.5,430.7c-12,3.4-5.4-6.4-4.7-6.4C281.7,423.6,282.3,427.3,279.5,430.7z"/>
<path id="fr-7" class="st0" d="M329.4,131.7c-3.1,0.6-6.3,0.9-9.4,1.1c-2.4,0.2-11.1,0.9-12.2,4.1c-0.4,1.3-2.6,14.4-2.6,16.1
	c0,0.9,1.3,0.9,1.3,1.3s-1.1-0.6-1.5,0c-0.6,0.8-0.7,1.8-0.4,2.8c0.2,1.1,1.5,1.9,2.1,2.8c-1.7-0.6-2.6-0.4-4.3,2.8
	c0.1,0.4-0.2,0.8-0.6,0.9c-0.1,0-0.1,0-0.2,0c-1.9,1.1-3.2,2.8-5.1,3.4c-4.7,2.8-22.7,3.2-25.3,7.5c-3,5.1-1.9,7.3,0,8.4l1.5,0.2
	c-1.7,0.4-3,0.6-3.9,1.3c-1.9,1.7-6.2,3.4-9,1.7s-5.1-2.8-7.9-2.8c-2.8-0.2-9.2-3.2-10.7-1.5s-1.3,0-1.1-1.3s-2.6-2.4-3-4.3
	s2.6-1.9,1.7-4.5s-4.7-1.3-5.8-0.2s-3.4-0.2-5.6-1.1s-4.7-1.9-5.8-1.9s0.2,1.7,1.5,2.4c1.1,0.7,1.4,2.1,0.8,3.2
	c-0.1,0.2-0.2,0.3-0.3,0.4c-1.1,0.9,0.4,0.6,0.4,2.8c0,2.4,1.3,2.1,2.6,4.7c1.5,2.6,0.6,3,2.4,4.3c1.5,1.3-0.4,0.2-0.4,3.9
	s1.5,1.5,0.4,5.4s-1.5,7.5,1.1,8.4s2.8,1.9-1.3,1.7s-8.6,1.5-7.5-1.5c1.1-2.8-0.2-3.2-2.1-2.1s-2.4,1.3-2.4,1.3s-1.7-0.9-2.6,0.2
	s-2.6,1.5-1.9-0.4c0.6-1.7-0.4-2.8-3.6-1.5c-2.5,1.2-5,2.5-7.3,4.1l-3.2-3l0.2-2.6l-2.8-2.8l0.9-1.3c0,0-3.4,1.3-2.4-0.6
	c1.1-1.7,1.7-3,1.7-3c-0.5-0.3-1.1-0.2-1.4,0.2c0,0.1-0.1,0.1-0.1,0.2c-0.3,0.5-0.7,0.9-1.3,1.1c0,0,1.1-2.1-0.6-1.7
	c-0.9,0.3-1.8,0.8-2.6,1.3c0,0,0.4-2.4-0.6-1.7c-1.3,0.6-2.6,2.6-4.7,1.1c-1.9-1.5-2.1-0.6-2.1-0.6l-2.1,0.6c0,0-0.2,2.1,1.1,2.4
	s-1.5-0.2-1.1,1.5s-1.5-0.6-4.7-1.5c-3.4-0.6-1.3,2.8-1.3,2.8s-1.3,0.2-2.6-3c-1.5-3.2-1.5-0.4-4.7,0s-3.9,2.4-4.9,0.6
	s-6.4,1.3-9,1.7s-2.6,4.3-1.9,6c0.4,1.7,3,1.9,5.6,1.1c2.2-0.6,4.4-1.1,6.6-1.3c0,0-5.1,1.1-4.3,2.1c0.6,0.9,2.6,0.6,3.6,0.4
	c-0.2,0.2-0.2,0.4,0.6,0.9c1.7,1.1-0.9,1.7-3.6,0.6c-2.6-1.3-2.1-2.6-3.9-1.1s1.5,0.6,0.6,2.6c-0.6,1.9,0.4,1.5,1.7,0.6
	c1.5-0.9,1.9,1.1,3.6,1.5c1.5,0.4,2.8,3.9-1.3,2.8s-8.4-1.1-9,0.4c-0.4,1.5,7.1,1.7,7.5,4.7s2.1,2.4,0.4,3.9
	c-1.5,1.7,1.5,2.4,3.9,2.1s0.4-3.6,2.1-2.1c1.5,1.5,3.2,1.7,3.6,0.4s0.4,1.1,3.2,3c2.6,1.9,3.6,1.5,5.8,2.4c1.9,0.9,1.7,2.8,3.2,2.8
	c1.3,0.2,1.5-0.9,2.8-1.7c-0.7,0.7-0.9,1.7-0.4,2.6c1.1,1.9,3.6,0.6,3.6-0.9s3-0.6,0.6,1.3c-2.4,1.7-0.9,0.4-1.3,3.4
	s1.3,4.1,1.3,1.9s1.1,0,2.8-1.1s1.5-1.5,2.6-0.4s2.6-0.6,3.6,0.6s0,2.8-2.6,1.7s-1.1-0.4-0.2,1.7c0.9,1.9,3.6-1.1,6,0
	s3.2,1.3,1.9,2.8s3,1.3,0,1.9s-1.5,0-1.7,2.4s0.6,1.9,2.8,2.8s2.4,1.5,4.1,0.2s4.1-2.6,7.1,0.4c3,2.8,3,3.9,4.3,3.9
	s-1.3,1.5-4.7-1.7c-3.4-3-5.1-3-5.8-0.6s0.4,2.8-1.9,2.6s1.1,0.4,2.8,1.7c1.7,1.5,3.4,2.1,1.1,4.3s-3.6,3.4-3.2,5.8s4.3,4.7,4.7,9
	c0.1,1.3,0.2,2.6,0.4,3.9c0,0,7.9,3.4,7.5,5.4s2.1,0.6,3.2,2.6c1.1,1.7,0.9,2.8,2.6,0.9s2.1,0.9,1.1,2.4s-1.5,0.6-2.4,2.4
	s0.6,0.2,1.3,1.7c0.4,1.5,1.5,4.1,1.3,5.1s-2.1-0.6-1.5,1.7c0.4,2.4-1.5,2.8-1.5,4.3v1.7c0,0-1.7-1.9-2.6,0.6s-0.9,1.3,1.1,2.6
	s4.3,5.1,6.2,7.9l0,0c0.2,0.2,0.2,0.6,0.4,0.9c1.5,7.5,0,12,4.3,16.7l-0.4,2.6c-0.2-0.4-0.4-0.6-0.6-1.1c-1.9-1.9-1.9-1.7-2.1-5.1
	c-0.2-3.2-0.8-6.3-1.7-9.4c-1.1-3.9-2.4-1.7-3.2-3.4s0.6-4.3-1.1-3.4s-1.7,1.1-2.4,4.1c-0.4,3-2.6,9.6-3.6,14.8
	c-0.9,5.1-4.3,11.6-3,11.8s1.5-4.5,2.8-2.8s2.8,4.1,1.1,4.3s-2.6-0.6-3.2,0.6c-0.4,1-0.9,1.9-1.5,2.8c0,0-6.9,22.5-9.9,30.2
	s-3,2.8-3.4,4.9v0.2c-0.8,0.2-1.7,0.2-2.6,0.2c-1.1,0.6-2.4,1-3.6,1.1c1.4,1.5,2.9,2.9,4.5,4.3c0.4,0.2,0.2-1.1,0.4-1.1
	c1.3,0.2,3,0.9,3.6,1.9c2.4,2.8-5.4,6-1.9,7.5c1.5,0.6,3.2-2.4,3.6-1.9c0.2,0.6-0.4,1.9,0,2.4c3.6,3.4,9.6,2.1,13.1,4.9
	c0.2,0.2,3,6.6,3.2,6.6c3.4,2.8,6.9-2.1,10.7,1.1c1.9,1.7,0.4,5.1,4.1,5.1c1.5,0.2,2.6-1.3,4.3-1.1c1.5,0.2,2.4,2.1,4.1,2.4
	c0.9,0,0.9-1.7,1.5-1.7c2.6-0.2,5.1,1.9,7.9,2.1c0,0-1.3-6.2,1.9-5.6c4.5,0.9,7.3,4.1,10.1,6.6c0.5,0.1,1,0.1,1.5,0
	c1.3,0.2,3,0.2,3.6,1.1c1.3,1.1,0.4,3.4,1.9,4.3v0.2c0.2-0.9,0.8-1.7,1.5-2.4c6.9-0.6,7.5,3,4.7,6.4c1.9,0.9,4.1,1.3,5.4,2.4
	c0.4,0.6,0.9,3.4,2.4,3.2c2.1-0.2,4.1-1.7,6.4-1.7c2.6,0,7.3,5.4,9.9,4.5c1.1-0.2,0-2.4,0.9-3c4.1-2.8,8.8-0.2,13.1,0.9h1.1
	c-1.5-1.3-3.2-2.8-3.6-4.3c-1.9-5.4,1.5-4.1,0.2-8.8c-0.2-0.9-2.1-0.6-2.1-1.3c0.2-3,3.6-4.5,4.3-7.3c0-0.9-1.3-1.9-0.9-2.4
	c3.2-4.5,8.6-3.4,11.1-4.9c3-1.7,7.3-7.1,10.1-8.8c2.6-1.7,5.4,1.9,7.5,3c0.9,0.6,10.1,1.7,10.5,2.8c0.2,1.1-3.4,6.9,5.1,3.2
	c0.6-0.2,0.6-0.6,0.2-1.1c-1.1-1.3-5.1-3.2-2.4-6.4c0.6-0.9-0.2,4.7,2.4,6.4c0.5,0.3,1,0.4,1.5,0.4c2,0.2,3.9-0.6,5.4-1.9
	c0.9-1.1-2.1-4.1-0.4-4.5c1.9-0.2,4.7,1.3,4.7,3.4c-0.2,2.1-5.1,1.5-5.4,3.6c-0.2,1.7,3,1.1,4.5,1.1c1.1,0,2.1-1.9,2.6-1.1
	c1.1,1.3-0.2,4.1,1.1,5.4s3.4,1.1,5.4,1.7c0.9-0.1,1.7-0.1,2.6,0c3.6,1.9,1.9,3.2,1.9,3.9c0.2,0.6,1.1,0.6,1.9,0.6
	c0.8,0.3,1.6,0.2,2.4-0.2c0.4-0.6-3.2-2.1,0.2-1.9c5.4,0.2,3.4,4.1,5.8,3.2c2.1-0.9,3.6-3.2,6.2-3.9c1.7-0.2,3.9,0.6,5.4,0
	c0,0.4-0.2,0.4,0.4,0.2c1.1-0.6,0.9-0.9,1.1-2.1c0.2-1.1,1.5-1.7,0.2-1.7c-1.5,0-2.4-0.2-0.4-0.9c1.7-0.4,1.5-1.3,1.7-2.6
	c0.2-0.5,0.4-1.1,0.4-1.7h0.2c0.4-0.2,1.3,0.2,2.6,0.6c1.7,0.6,2.1-0.9,3-2.6s-0.2-1.7,1.7-2.4c0.3-0.2,0.6-0.2,0.9-0.2h2.1
	c0.2,0,0.2-0.2,0.2-0.4l0,0c0.2-0.4,0.2-0.9,0-1.3v-0.2c0.4-0.8,1.1-1.4,1.9-1.7c1.9-1.1,2.4-1.3,3-1.1l0,0c0,0.2,0,0.6,0.2,0.6
	s0.2-0.2,0-0.6l0,0c0.4,0.4,0.9,0.2,1.5,0v-0.4h-0.2c-0.9-0.2-0.6-1.1,0.9-1.9c0.3-0.2,0.6-0.3,0.9-0.4c0.6-0.2,0.6,0.4,0.4,1.1h0.4
	c0.6-0.4,1.1-0.8,1.5-1.3c0-0.5-0.2-0.9-0.4-1.3c0.2-4.7,7.5-10.1,3.9-12.6c-1.3-0.9-3.2,0.2-4.7,0.6c-1.5,0-3.4,0.9-5.1,0.2
	c-3-0.9-9.9-6-9.6-9.6c0-0.6,1.3-0.6,1.3-1.1c-0.2-0.9-3-1.7-2.1-3.2c1.2-1,2.2-2,3.2-3.2c0.2-0.2-0.4-0.9-0.2-1.3
	c0.2-0.9,2.6,0.6,3-0.2c0.1-2.1-0.3-4.1-1.1-6c-1.3-2.1-10.1-5.6-9.6-9.9c0-1.3,2.4-1.3,3.6-1.7c0.9,0,1.3,1.7,2.1,1.3
	c1.3-0.2,9.9-7.3,8.6-9.6c-0.9-1.7-3.4-1.9-4.3-3.9c-0.9-1.1,0.2-3-0.2-4.1c-3.6-6.4-10.7-3.2,1.5-10.5c-1.1-1.7-1.1-3.4-2.4-4.9
	c-0.2-0.6-1.3,1.1-1.5,0.6c-0.2-0.9,1.1-2.1,0.4-3c-0.2-0.9-1.9,0-2.4-0.6c-1.5-2.8,2.1-2.4,1.9-4.1c-0.2-1.3-1.9-1.9-1.9-3.2
	c-0.2-0.9,1.9-2.4,0.9-2.8c-3.4-1.7-10.9-1.7-13.3,2.1c-0.4,0.6-0.2,1.1-0.2,1.9c0.2,0.6,1.5,1.1,1.3,1.7c-1.5,3.2-5.4,4.5-8.6,3.9
	c-0.2,0,1.1-0.6,1.1-1.1c0-3.4,2.6-2.1,3-3c1.3-4.3-2.1-8.1,1.1-12c1.9-2.8,6.6-2.8,7.7-5.6c0.9-1.7-0.9-4.1,0-6
	c1.1-2.1,4.7-1.3,6.4-3.2c1.9-1.7,4.1-7.1,6.4-8.8c1.3-1.1,2.6,1.9,3-1.9c0-1.3-4.1,1.3-4.3,0c-0.4-1.3,1.5-2.4,2.4-3.4
	c0,0,0.4,0.2,0.4,0c0-0.6-1.1-1.7-0.4-1.9c7.5-2.1,4.3,8.1,13.3-1.3c-0.2,0-0.2-1.1-0.2-4.5c-0.2-3.9,2.4-7.3,2.6-10.9
	c0-0.6-1.1-0.6-1.1-1.3c-0.1-1.4,0.2-2.8,0.9-4.1l3.6-6.2c0.2-1.7,0.4-7.5,1.3-9.4c2.1-4.3,7.5-7.5,10.5-12.6
	c1.1-1.9-15-3.9-16.1-4.5c-0.9-0.9-0.2-2.4-1.1-3.2c-1.3-1.1-9.9,2.4-10.5,1.7c-0.2-0.9,0.9-1.9,0.2-2.4c-7.9-7.3-2.6,3.9-5.8,0.2
	c-2.6-2.8-4.1-8.8-6.2-10.3c-0.9-0.9-2.4,0-3-0.9c-1.4-0.8-2.9-1.2-4.5-1.3c-1.3,0-2.6,1.3-4.3,1.3c-0.2,0.2,0-0.9-0.2-1.1
	c-1.1-0.6-2.1-1.1-3.4-1.7c-0.8-0.3-1.5-0.5-2.4-0.6c-1.9-0.2-3.6,1.7-5.4,0.9c-1.3-0.6-0.2-3-1.1-4.1c-0.4-0.9-1.9-0.2-2.6-0.9
	c-0.2-0.2,1.1-0.9,1.1-1.1c-0.1-0.6-0.5-1.1-1.1-1.3c-0.4-0.2-1.3,0.9-1.5,0.6c-1.1-0.9-1.3-2.4-2.4-3.2c-1.9-0.9-4.5,0-5.6-1.7
	c-1.1-1.1,1.1-2.8,1.1-4.1c-0.2-1.1-1.9-1.3-1.9-2.4c0-1.3,1.1-2.4,1.3-3.4c0.2-0.9,1.5-1.7,1.1-2.1c-1.9-1.7-3.4,3.2-5.4,4.9
	c-3.6,3.4-12.6,1.3-11.8-0.2c0.9-1.3,2.1-2.1,2.1-3.4c0-0.9-2.1-0.9-1.9-1.9c0-1.7,2.1-3,2.1-4.5c-0.4-4.5-11.6-1.9-12-4.1
	c-0.2-1.1,0.4-2.4,0.2-3.4c-0.9-4.3-6.6,0-8.4-3.9c-1.1-2.1,0.4-8.4-3-9.6c-1.5-0.9-3,3-5.1,3C330.3,145.8,330.1,135.5,329.4,131.7
	L329.4,131.7L329.4,131.7z M140.7,197c-1.5,0.6-2.6,1.7-1.3,1.7C140.7,199,142.4,198.8,140.7,197z M178.6,231.3
	c-0.9,0-1.1,1.1,0.4,1.7c1.7,0.9,2.8,0.2,0.6-1.5C179.3,231.4,179,231.4,178.6,231.3L178.6,231.3L178.6,231.3z M183.3,241.8
	c-1.1,0.4-1.1,2.6,2.1,4.3c4.1,2.1,1.3-2.4-0.9-3.9c-0.2-0.1-0.4-0.2-0.6-0.2C183.8,241.9,183.6,241.8,183.3,241.8L183.3,241.8
	L183.3,241.8z M204.1,258.2c0,0-1.9,1.9,0.2,2.6s3,1.7,1.9,0.4C205.2,259.8,207.6,258.9,204.1,258.2L204.1,258.2z M200.5,267.5
	l-1.1,2.1l3.4,0.6L200.5,267.5z M217.2,288.7c-1.7,0-3,1.5-0.4,1.7c2.6,0.4,4.1,2.8,5.8,2.8C224.5,293.4,220.8,288.6,217.2,288.7
	L217.2,288.7L217.2,288.7z M219.6,296.8c-1.3,1.3-0.4,4.5,0.9,7.1c1.5,2.6,2.4-0.2,2.1-2.1S221.3,299,219.6,296.8L219.6,296.8z"/>
<path id="gg-9" class="st1" d="M217.4,167.5h-0.6c-1.3,0.2-0.6,0.6,0.2,0.4C217.6,167.7,217.8,167.5,217.4,167.5L217.4,167.5z
	 M208.4,173.7L208.4,173.7c0,0.4,0,0.4-0.4,0.4c-0.4-0.2-1.1,0.9-1.5,0.9s-0.9,0-0.9,0.4c0.2,0.4,0,0.4-0.4,0.4s0,0.6,1.3,0.9
	c1.3,0,1.7,0.2,1.9-0.2c0.2-0.6,0-1.1,0.4-1.3s0.5-0.7,0.4-1.1c0-0.4-0.4,0-0.4,0C208.6,173.7,208.6,173.7,208.4,173.7L208.4,173.7
	L208.4,173.7z M210.3,174.8c-0.2,0,0,0.2,0,0.6c0.2,0.4,0.6,0,0.2-0.4C210.5,174.9,210.4,174.8,210.3,174.8L210.3,174.8L210.3,174.8
	z M212.5,176.1v0.2c0,0.4-0.9,1.3-0.4,1.1c0.4-0.1,0.7-0.5,0.7-0.9v-0.1L212.5,176.1L212.5,176.1z"/>
<path id="je-0" class="st1" d="M214.2,182.7c0,0.2,0.1,0.3,0.2,0.4c0.4,0.5,0.4,1.2,0,1.7c-0.4,0.2,0,0.6,0.6,0.4s0.2,0.2,0.4,0.2
	c0.2,0.2,0.6,0.2,0.4-0.2c-0.2-0.6,0.2-0.4,0.6-0.4s0.2,0.9,0.6,0.6s0.2,0.4,0.9,0.4s0.9,0.2,0.9-0.4c0-0.4,0.4-0.2,0.2-0.6
	s0.2-0.9-0.2-1.1c-0.2-0.4-1.1,0-1.1-0.6c-0.4-0.5-1-0.6-1.5-0.4c-0.5,0.2-1.1,0.1-1.5-0.2C214.7,182.7,214.4,182.7,214.2,182.7
	L214.2,182.7L214.2,182.7z"/>
<path id="mc-6" class="st2" d="M429.2,398c0-0.6,0-1.1-0.4-1.1s-0.8,0.2-1.1,0.4c-1.5,0.9-1.5,1.7-0.9,1.9h0.2L429.2,398z"/>
</svg>
