<?xml version="1.0" encoding="utf-8"?>
<!-- Generator: Adobe Illustrator 21.0.0, SVG Export Plug-In . SVG Version: 6.00 Build 0)  -->
<svg version="1.1" id="Layer_1" xmlns="http://www.w3.org/2000/svg" xmlns:xlink="http://www.w3.org/1999/xlink" x="0px" y="0px"
	 viewBox="0 0 606 622" style="enable-background:new 0 0 606 622;" xml:space="preserve">
<style type="text/css">
	.st0{fill:#FFFFFF;stroke:#FFFFFF;stroke-width:0.4;}
</style>
<title>Untitled-2</title>
<path id="de-2" class="st0" d="M461.8,0L461.8,0l-0.6,0.6c-0.6,1.3-1.5,2.1-2.4,7.9c0,1.3,0.6,2.4,0.6,1.5c0.1-1.2,0.3-2.5,0.6-3.6
	c0.2-0.6,0.6-0.4,1.3,0s0.9,0,2.1-0.4s1.5-1.1,1.1-1.1c-1.1,0.2-2.2,0.2-3.2,0c-1.3-0.2-0.2-1.9,0-3.2c0.1-0.7,0.6-1.2,1.3-1.3
	C462.3,0.5,462,0.3,461.8,0L461.8,0z M466.3,5.1c-0.1,2.1,0.3,4.1,1.1,6c0.2,0.6,2.4,3,4.1,5.1c-0.6,1.9-0.2,1.9-1.3,2.6
	c-0.9,0.6-0.9,2.4,0.9,1.7c1-0.3,1.9-1,2.4-1.9c0.2,0.3,0.4,0.6,0.6,0.9c-0.9,3.6-4.9,2.1-7.9,3.4c0.2,0.2,2.4,0.4,1.3,1.7
	c-0.2,0.6-2.4-0.4-2.1,0.2c0.2,1.7,0.2,3,4.7,2.1c0.6,0.9,0.6,0.9,1.1,0.6c0.6-0.5,1.1-1.1,1.5-1.7h0.4c-1.9,2.4-3.2,2.6-3,6.2
	c0.3,0.2,0.7,0.2,1.1,0.2c0.9-0.2,1.1,0.4,1.7,1.7s0.4,1.9-0.9,1.5c-1.1-0.2-1.3-0.4-1.9,0c0.2,1.1,0.6,2.2,1.1,3.2
	c-0.4,3.9,5.6,2.1,6.2,2.1c4.9,0.4,3.6,4.9,6.6,6.2c0.9,1.9-0.4,4.1,7.1,6c-7.3-1.1-6.9-3-8.1-5.1c-2.6-2.1-2.4-4.9-4.3-5.8
	c-2.4-1.1-5.4,1.1-7.9,0.6c-1.1,0.1-2.2-0.1-3.2-0.6c-0.9-0.2-0.9-2.1-1.3-1.9c-5.6,4.7-3.9,8.7-2.6,12.4c-3.6-0.9-5.1-4.7-6.4-1.7
	c-1.7,4.3,2.4,0.4,0.9,5.6c-0.2,0.9-1.5,1.5-2.8-0.6c-0.4,0-1.7-0.4-1.5-1.3s2.4-1.5,1.3-3.2c-1.3-2.4-2.1-3-1.9-4.3
	c-0.4-0.3-0.8-0.5-1.3-0.6c-5.6-0.2-6.4,0.4-9.2,1.3c-1.5-0.4-4.9-0.6-6.2,0c-1.3,0.8-2.3,1.9-3,3.2c0.9,0.9,1.5,1.3,1.1,1.3
	c-0.6,0-1.1,0.2-0.9,0.6s-0.2,0.2-1.1-0.4c-1.3,2.4-2.1,5.1-1.1,6.6c1.4,0.3,2.8,0.6,4.3,0.6c0.2,0.4,1.5,1.3,0.4,2.8
	c0.4,4.5-4.1,13.3-4.5,15c-0.9,2.1,1.1,6.4-1.1,6.4c-1.9,0-3.4-0.9-5.4-0.9c-0.4,0-1.3,0-1.3,0.6c-0.2,0.9,1.1,1.7,0.9,2.4
	c0,0.6-1.3-0.2-1.5,0.6c-2.4,4.1,7.5,2.4,7.7,6.2c1.1,6.6-4.1,7.7-8.4,10.7c-2.4,1.7,3.4,1.9,2.6,3.9s-7.9,4.3-9.9,4.1
	c-1.9,0-3-1.9-4.5-2.4c-0.4-0.2,0.4,1.3,0,1.7c-1.5,0.6-3.2-0.2-4.5,0.6c-0.4,0.2,0,1.1,0,1.7c-0.2,0.6-0.9,1.3-0.4,1.9
	c1.5,3,7.5,7.3,5.1,13.3c-0.9,1.9-2.6,3.2-3.4,5.1c-1.1,2.1,2.4,0.6,2.1,1.9l-5.1,4.5c-0.4,0,0.2-1.3-0.6-0.9
	c-2.4,3.9,4.1,1.3,3.2,6.9c-0.2,1.1-2.1,1.1-2.4,2.1c-0.2,0.9,3.4,6.4,3.6,6.6c0.4,0.6,2.1-0.6,2.1,0.2c0.2,1.1-1.9,2.1-1.5,3.2
	c0.4,1.7,3,1.3,3.6,2.8c3.6,6.2-8.6,5.6-6.2,15.6c1.3,5.6,7.7,6.2,8.4,7.1c3.6,4.5-6.9,6.6-4.1,12c0.4,0.9,2.1,0,3,0.9
	c2.1,1.3,3.4,7.5,6.2,10.3c3.2,3.4-2.1-7.5,5.8-0.2c0.4,0.6-0.4,1.7-0.2,2.4c0.4,0.9,9-2.8,10.5-1.7c0.9,0.9,0.2,2.4,1.1,3.2
	c1.1,0.9,17.1,2.8,16.1,4.5c-3,5.1-8.4,8.4-10.5,12.6c-0.9,1.9-1.1,7.7-1.3,9.4l-3.6,6.2c-0.4,1.3-1.1,2.8-0.9,4.1
	c0,0.9,1.1,0.9,1.1,1.3c-0.2,3.9-3,7.3-2.6,10.9c0,9.4,1.1,1.3,3.4,3.2c0.2,0.2-1.5,0.6-1.3,1.1c0.9,1.7,13.1-1.3,13.9-1.3
	c5.4-0.2,0.4,4.9,7.3,1.3c0.2-0.2-0.4-1.7,0-1.9c0.9-0.6,3.6-0.9,2.6-1.1c-1.5-0.2-3.2,0.2-4.7,0c-0.9-0.2,3.6-7.5,7.7-3.4
	c0.4,0.6-0.9,1.7-0.4,2.4c0.4,0.6,1.2,0.9,1.9,0.6c0.4-0.2-0.2-2.1,0-1.7c1.1,0.6,1.1,2.4,2.1,3c0,0,8.8-0.6,9-0.6
	c3,0.9,4.7,3.9,7.7,4.9c4.3,1.3,4.1-3.4,5.4-2.4c0.4,0.6,0,1.9,0.4,2.4c1.1,0.2,2.1-1.1,3-0.6c1.1,0.6,1.5,1.9,2.6,2.8
	c1.3,1.1-0.4,2.1,0,3c0.3,0.6,0.9,0.9,1.5,0.9c0.4,0,1.3-1.1,1.5-0.9c0.9,1.1-2.1,2.8-1.1,3.9c1.9,1.9,6.9-4.3,6.9-5.4
	c0.4-1.9-1.1-6.4,0.4-5.4c-0.1,0.2-0.2,0.5-0.4,0.6c2.1,2.4,9.6-1.9,10.7,1.7c0.2,0.6-1.3,0.2-1.1,0.9s1.5,0.6,1.9,1.1
	c0.4,0.6,0,1.9,0.4,2.4c1.1,0.6,10.1-1.9,10.5-2.1c0.4-0.6-0.4-1.9,0.2-2.1c1.1-0.9,2.4,0.6,3.4-0.2c1.1-0.6,0.4-2.4,1.5-3
	c3.4-1.3,9.6,0.2,13.3-0.9c0.9-0.2-2.1-4.5,1.1-4.9c0.4,0-0.4,1.7,0,1.9c1.3,0.6,3-0.9,4.5-0.2c0.9,0.2,0.4,2.1,1.5,2.4
	c2.2,0.2,4.1-1.8,6.2-1.8c4.1,0.2-2.6,4.5,5.8,7.1c0.6-0.2,1-0.7,1.1-1.3c2.4-8.8-0.4-4.9-3.4-7.5c-1.3-1.1,2.4-4.3,2.1-4.5
	c0-0.2-6.4-9.2-6.4-9.2c0.2-4.3,11.6-7.1,13.9-8.8c2.6-2.1,1.1-5.1,1.5-7.7c0.2-0.5,0.7-0.9,1.3-0.9c5.6,1.3,7.3,3,7.5-4.3
	c0.2-7-11.3-10.9-15.6-13.9c-1.9-1.7-2.1-4.5-4.1-6.4s-4.5,0-6.2-1.3c-0.4-0.4,0.6-0.9,0.4-1.3c-0.5-1.1-1.6-1.8-2.8-1.7
	c-2.8-7.3-2.6-9-6.4-11.6c0.4-3,4.1-1.7,3.2-5.4c-0.2-1.7-2.1-1.9-2.6-2.1c-2-1.4-3.6-3.1-4.9-5.1v-1.7c0-1.1-0.9-1.5-1.5-1.9
	c-0.4-0.2-0.7-0.6-0.9-1.1c0.3-0.1,0.5-0.2,0.6-0.4c0.6-0.4-0.9-1.3,0-1.7c1.1-0.6,1.9,0.9,2.6,1.9c1.1,0.9,1.1,4.5,1.5,3.4
	c2.1-4.3,3.2-9.4,9.8-10.5c0.9,0,3.6,2.4,4.7,1.1c0.9-0.9,0-2.4,0.9-3c0.9-0.9,2.4,0.6,3.2-0.2c1.5-1.1,1.9-4.3,4.3-4.9
	c0.9-0.2,1.3,1.7,1.9,1.1c1.3-1.1,0.9-3.2,2.1-4.3c1.5-1.3,4.5,0.2,6.6-0.9c0.4-0.2,0-1.7,0.4-1.9c3.2-1.9,7.7-2.1,10.9-4.9
	c1.1-0.9-3.6-1.9-3.2-3.2s0.9-2.6,1.5-2.4c0.9,0.2,1.3,1.3,1.7,1.3c0.6,0,0.6-0.4,1.1-0.4c0.2,0,0.4,0.2,0.4,0.4h0.6
	c2.1,0.4,2.1,0.6,1.9,1.7s-0.2,1.3,0.2,1.5c0.3-0.1,0.6-0.2,0.9-0.4c1.1-0.6,0.6,0.4,0,1.7l0.2,0.2c-0.2,1.3,0.9,1.5,1.7,1.7
	c0.4,0.4,1,0.6,1.5,0.4c1.5-0.2,1.5-4.1,3.6-10.5c0.9-2.6,1.9-4.1,0.2-7.7c-1.1-2.1-0.2-3.9-2.6-5.6c-1.1-1.1-3.4-0.6-4.5-2.1
	c-0.9-1.1,2.4-1.7,0.4-4.1c-0.6-0.9-1.9-2.4-2.1-3.9c-0.2-1.3-1.7-1.1-1.1-2.4c3.6-3.9,1.7-4.1,2.6-8.1c-0.2-0.6-1.3-0.2-1.5-1.1
	c-0.2-1.3,0.9-3.2,0-4.5c-0.4-1.7-2.6-1.3-3.2-3.4c-1.3-1.5-0.2-3,0.4-4.1c0.4-1.1,0.9-1.5,0.4-4.3c-0.4-1.9-3.4-3.6-5.8-5.6
	c-2.1-1.9-4.7-1.3-5.3-3c-0.4-1.3,1.1-0.6,0.6-3.6c-0.2-1.3,1.7-2.4,2.8-3.4s1.5-3.4,1.9-4.9s0.9-2.1,0.6-3.9
	c-0.4-2.8-3.6-10.5-4.3-14.8c-0.4,0,0.4-1.7-0.4-1.9s-2.4,1.1-4.1,0.2c-1.4-0.8-2.8-1.7-4.1-2.7c0.2,0,0.4-0.1,0.6-0.2
	c0.6,0,0.4-1.1,0.6-0.9s-0.4,0.6,0,0.6c0.6,0,1.1-0.9,1.7-1.1c0.6-0.4,0.9,0.2,1.9,0c0.6-0.1,1.1-0.1,1.7,0l-0.2-1.3l-0.2-0.4
	l0.6-0.4c0,0,0.2,0-0.9-0.6s-0.9-0.9-2.8-2.6s-2.1-1.3-1.7-0.6c0.6,0.6,1,1.4,1.3,2.2c0.2,0.9,0,1.5-0.4,1.1
	c-0.2-0.3-0.5-0.5-0.9-0.6c-0.1-0.3-0.3-0.6-0.6-0.6c-0.6,0-1.3,0.6-0.6,1.1c0.5,0.8,0.6,1.9,0.2,2.8c-0.4,0.5-0.9,0.7-1.5,0.6
	c-0.6-1.7,3.6-1.5-1.7-5.1c-1.9-1.3,4.5-1.7,2.6-2.4c-2.4-3.9-3.6-3.6-3.2-2.1c-2.1-0.6-5.3,0.4-5.8,2.1c-1.1-2.1-3.2-3.4-4.7-4.9
	c-0.9-1.1-2.6-0.6-3.4-1.7c-1.1-1.7,0-5.4-1.9-5.4h-0.4V21c-0.6,0.6-0.6,0.2-1.3,0.6c-0.9,0.4-0.6,0.9-0.9,1.7s-1.3,0.6-1.3,0.2
	s-0.2-0.9-0.6-0.6c-0.6,0.1-1.2-0.1-1.5-0.6c-0.4-0.6,0-0.4-0.4,0c-0.5,0.5-1.1,1-1.7,1.5c-0.9,0.6-0.6-0.9-1.1-0.4
	c-0.4,0.6,0,1.1-0.6,1.3s-0.4,0.6-0.6,1.1s-0.9,0-1.3,0.9c0,0.6,0.5,1,1.1,1.1c0.9,0.2-0.4,0.2-1.3,0s-0.2-0.4-0.4-1.1
	c-0.4-0.6,0-0.6,0.4-1.1c0.4-0.6,0.4-0.2,0.4-1.1s0-0.6,0.4-1.1s1.3,0,2.4-0.4s0.2-0.2,0.6-0.6c0.4-0.3,0.9-0.4,1.3-0.2
	c0.6,0,0.4-0.4,1.1-0.4c0.6,0.1,1.1,0.1,1.7,0c0.7-0.2,1.4-0.2,2.1-0.2c0.3-0.1,0.5-0.3,0.4-0.6c0,0,0,0,0,0h-0.4
	c-3.4-0.2-8.1-1.5-8.6-0.9c-1.5,1.9-1.9,4.9-3.4,6.6c-1.4,1.1-2.6,2.3-3.8,3.6c-1.8,0.8-3.7,1.4-5.6,1.9c-2.6,0.4-3.2,0-4.3,0.2
	c-2.4,1.3-3.2,8.1-4.5,8.8c-3-3.9-2.1,1.5-5.6-4.1c-2.1,0-3.6,2.4-5.8,2.1c-0.4-0.4,0.6-1.7-2.1-1.7c-1.1,0-0.6-2.6,0.9-2.8
	c2.1-0.4,3.4-2.6,5.4-4.1c-0.2-3.9-0.6-5.4,0.4-6.9c-1.1,0-1.3,0.6-2.6,0.2s-4.3,2.6-4.7,2.8c-1.9-0.6-7.5-4.9-9.2-4.5
	c-1.9,0.2-3.6,4.5-3.6,4.5s1.3-3.4,1.1-5.1c-0.2-2.4-4.9,0.4-6.9,0c-1.5-1.9,1.9,0.6,3.4-3c0.4-1.3,0.9-3,0-4.3
	c-0.2-0.6-1.5,0.6-1.9,0c-0.4-0.2,0.4-0.9,1.1-1.1c0,0,0.4,0.2,0.4,0c0.1-0.9-0.3-1.8-1.1-2.4c-0.6-0.4-0.9-0.6-2.1,0
	c-0.9-1.3-1.9-1.9-3-1.7c-1-0.3-1.9-0.9-2.6-1.7c-1.1,0.2-1.5,1.7-2.6,2.4c-0.4,0.2-0.4,0-0.2-0.9c-3.4-0.6-6.9-2.4-10.5-3
	C471.3,5.1,468.1,5.4,466.3,5.1L466.3,5.1L466.3,5.1z M464.4,9.9c-1.5,0-3.6,0.9-2.6,1.9c1.7,0.9,2.4,1.1,3.2,0.2
	C465.9,10.9,466.1,9.6,464.4,9.9z M563.5,11.1c-1.3,0.2-2.4,0-3.2,1.1c-0.6,1.1-0.9,1.9,0,1.1c0.6-0.9,1.7-0.9,0.9,1.1
	s-0.2,1.3,0.4,0.6c0.5-0.2,0.8-0.6,1.1-1.1c0.2-0.4,0.2,0,0.9,0.6c0.4,0.5,0.9,0.9,1.5,1.1c0.6,0,0.6-0.2,0.6,1.1s0.2,1.3-0.4,1.5
	s-0.9,0.2-1.1-0.6s0.2-0.6-0.2-1.1s0-0.4-0.4,0c-0.6,0.4-0.9,0.4-0.4-0.9c0.2-1.3-0.2-1.1-0.9-0.2c-0.9,0.9-0.2,0.6-0.2,1.1
	c0,0.6,0,0-0.4-0.4c-0.6-0.4-1.5,0-2.1,0s0,0.2,0,0.9s0.4,0.4,0.9,0.4s0.6,0,0.4,0.4s-0.2,0.4,0.2,0.4c0.4,0.2,0.9-0.4,0.2,0.4
	c-0.6,0.6-1.3,1.1-1.7,1.5s0.2,0.6,0.6,0.6c0.6,0,0.4,0,0.6,0.6s0.9,1.1-0.2,1.1s-1.7-0.4-1.9,0.4c-0.2,0.6,0.1,1.3,0.6,1.7
	c2.1,1.9,2.6,1.9,3.2,1.7s0.2-0.4,0.4,0.2c0.2,0.7,1,1.1,1.7,0.9c0,0,0,0,0,0c0.9-0.4-0.9-1.5,0.2-2.6s2.8-2.4,4.1-1.9
	c1.3,0.2,1.7,1.1,1.1,1.7s1.1,1.5,1.3,0s0.9-1.3-0.4-2.6s-2.4-0.4-3-2.8s1.5-1.1,1.7-3s-0.9-1.9-2.8-1.7s-3,0.2-3.2-1.1
	c0-1.3,0-0.9,0.6-1.3C564.6,11.8,564.8,10.9,563.5,11.1L563.5,11.1L563.5,11.1z M467.5,16.9c-0.7,0.1-1.3,0.3-1.9,0.6
	c-0.6,0.4-0.4,0.4,0.2,1.3s1.3,0.2,1.7-1.1C467.7,17.1,467.7,16.9,467.5,16.9L467.5,16.9L467.5,16.9z M516.4,17.8
	c-1.5,0.4-1.9,2.6-1.5,3c0.2,0.2,0.4,0.4,0.6,0.4c1.3-0.4,1.3-0.6,1.1,0.2c0,0.9,0.4,1.9,1.3,1.1c0.6-0.6,1.4-0.7,2.1-0.4
	c0.9,0.2,1.5,0.6,0.6-1.1s-1.5-3.2-3.6-3.4C516.8,17.7,516.6,17.8,516.4,17.8L516.4,17.8L516.4,17.8z M559.5,18
	c-0.6,0.2-1,0.7-1.3,1.3c-0.4,0.9,0.6,0.2,1.9-0.4c0.2-0.2,0.4-0.2-0.2-0.6C559.7,18.2,559.7,18,559.5,18L559.5,18L559.5,18z
	 M525.6,35.5h-0.4c-0.9,0.2-3,0.6-2.4,1.7s1.1,1.1,1.1,0.2s0.4-1.1,0.2-0.4c0,0.6,0,2.4,0.6-0.2C525.2,36.2,525.8,35.8,525.6,35.5
	L525.6,35.5L525.6,35.5z M424.5,49.5c2.4-0.6,3.9-0.4,2.8,0.2s-0.9,1.5-1.7,1.3C424.5,50.5,423.9,49.9,424.5,49.5L424.5,49.5z
	 M429.2,47.1c4.3-0.2,6,0.2,3,0.2C429.4,47.5,427.5,47.5,429.2,47.1L429.2,47.1z M436.5,46.5c2.1-0.2,3-0.9-0.2-0.9
	S434.8,46.7,436.5,46.5L436.5,46.5z M439.9,45.4c0.9,0.4,1.1,1.3,0.2,0.9C439.5,45.8,439.1,45.2,439.9,45.4L439.9,45.4z M442.3,44.8
	c2.4,0,3,0.6,1.3,0.6c-1.9,0-1.3,0-1.5,0.4s-1.3,0.2-0.9-0.4C441.4,44.8,441.4,45,442.3,44.8L442.3,44.8z M447,44.8
	c1.3-0.2,1.7-0.4,0.4-0.4s-1.7-0.2-1.7,0.2S446.4,44.8,447,44.8L447,44.8L447,44.8z"/>
</svg>
